<svg width="512" height="512" xmlns="http://www.w3.org/2000/svg">

 <g>
  <title>background</title>
  <rect fill="none" id="canvas_background" height="402" width="582" y="-1" x="-1"/>
 </g>
 <g>
  <title>Layer 1</title>
  <path id="svg_2" fill="#191919" d="m501.5,428.2l-491,0c-5.8,0 -10.5,-4.7 -10.5,-10.5l0,-323.4c0,-5.8 4.7,-10.5 10.5,-10.5l490.9,0c5.8,0 10.5,4.7 10.5,10.5l0,323.3c0.1,5.9 -4.6,10.6 -10.4,10.6zm-480.4,-21.1l469.8,0l0,-302.2l-469.8,0l0,302.2z"/>
  <path id="svg_3" fill="#000000" d="m256,266.5c-2,0 -4,-0.6 -5.8,-1.7l-245.5,-161.7c-4.9,-3.2 -6.2,-9.7 -3,-14.6c3.2,-4.9 9.7,-6.2 14.6,-3l239.7,157.9l239.7,-157.9c4.9,-3.2 11.4,-1.9 14.6,3c3.2,4.9 1.9,11.4 -3,14.6l-245.5,161.7c-1.8,1.2 -3.8,1.7 -5.8,1.7z"/>
  <path id="svg_4" fill="#000000" d="m10.6,428.2c-2.9,0 -5.9,-1.2 -8,-3.6c-3.8,-4.4 -3.4,-11.1 1,-14.9l211.5,-184.1c4.4,-3.8 11.1,-3.4 14.9,1c3.8,4.4 3.4,11.1 -1,14.9l-211.5,184.1c-2,1.8 -4.5,2.6 -6.9,2.6z"/>
  <path id="svg_5" fill="#000000" d="m501.4,428.2c-2.5,0 -4.9,-0.9 -6.9,-2.6l-211.4,-184c-4.4,-3.8 -4.9,-10.5 -1,-14.9c3.8,-4.4 10.5,-4.9 14.9,-1l211.5,184.1c4.4,3.8 4.9,10.5 1,14.9c-2.2,2.3 -5.1,3.5 -8.1,3.5z"/>
 </g>
</svg>