<svg width="128" height="128" xmlns="http://www.w3.org/2000/svg">

 <g>
  <title>background</title>
  <rect fill="none" id="canvas_background" height="130" width="130" y="-1" x="-1"/>
 </g>
 <g>
  <title>Layer 1</title>
  <path id="svg_3" d="m64.043,74.354c-1.104,0 -2,-0.896 -2,-2l0,-9.756c0,-1.104 0.896,-2 2,-2c5.27,0 9.557,-4.286 9.557,-9.556c0,-5.271 -4.287,-9.56 -9.557,-9.56s-9.557,4.289 -9.557,9.56c0,1.104 -0.896,2 -2,2s-2,-0.896 -2,-2c0,-7.477 6.081,-13.56 13.557,-13.56s13.557,6.083 13.557,13.56c0,6.796 -5.026,12.439 -11.557,13.409l0,7.903c0,1.104 -0.896,2 -2,2z"/>
  <circle id="svg_4" r="3.796" cy="85.098" cx="64.042"/>
 </g>
</svg>